<?xml version="1.0" encoding="UTF-8"?>
<svg id="Layer_1" xmlns="http://www.w3.org/2000/svg" version="1.1" viewBox="0 0 1000 1000">
  <!-- Generator: Adobe Illustrator 29.8.2, SVG Export Plug-In . SVG Version: 2.1.1 Build 3)  -->
  <defs>
    <style>
      .st0 {
        fill: #e80000;
      }

      .st1 {
        fill: #fff;
      }

      .st2 {
        fill: #252359;
      }
    </style>
  </defs>
  <rect class="st2" x="-.65" width="1001.3" height="1001.3"/>
  <g>
    <g>
      <path class="st1" d="M730.46,452.57c0,5.48-4.44,9.92-9.92,9.92-4.1,0-7.63-2.49-9.13-6.05h-29.48l-5.09-9.66h-55.04v-5.27h58.22l5.09,9.66h25.66c.69-4.81,4.78-8.52,9.78-8.52,5.48,0,9.92,4.44,9.92,9.92Z"/>
      <path class="st1" d="M723.53,354.29c5.48,0,9.92,4.44,9.92,9.92s-4.44,9.92-9.92,9.92c-4.1,0-7.61-2.48-9.12-6.03h-49.04l-7.17-18h-36.41v-5.27h39.98l7.17,18h44.81c.68-4.82,4.78-8.54,9.78-8.54Z"/>
      <path class="st1" d="M706.19,376.14c5.48,0,9.92,4.44,9.92,9.92s-4.44,9.92-9.92,9.92c-4.56,0-8.36-3.09-9.52-7.28h-74.88v-5.27h74.88c1.16-4.19,4.96-7.28,9.52-7.28Z"/>
      <path class="st1" d="M733.45,407.9c0,5.48-4.44,9.92-9.92,9.92-4.56,0-8.36-3.09-9.52-7.28h-30.78l-9.87,12.35h24.56c1.16-4.19,4.96-7.28,9.52-7.28,5.48,0,9.92,4.44,9.92,9.92s-4.44,9.92-9.92,9.92c-4.56,0-8.36-3.09-9.52-7.28h-63.72v-5.27h32.4l14.08-17.62h33.32c1.16-4.19,4.96-7.28,9.52-7.28,5.48,0,9.92,4.44,9.92,9.92Z"/>
    </g>
    <g>
      <path class="st1" d="M720.54,797.71c-5,0-9.09,3.71-9.78,8.52h-25.66l-5.09-9.66h-58.22v5.27h55.04l5.09,9.66h29.48c1.51,3.56,5.03,6.05,9.13,6.05,5.48,0,9.92-4.44,9.92-9.92,0-5.48-4.44-9.92-9.92-9.92Z"/>
      <path class="st1" d="M723.53,709.36c5.48,0,9.92,4.44,9.92,9.92s-4.44,9.92-9.92,9.92c-4.1,0-7.61-2.48-9.12-6.03h-49.04l-7.17-18h-36.41v-5.27h39.98l7.17,18h44.81c.68-4.82,4.78-8.54,9.78-8.54Z"/>
      <path class="st1" d="M706.19,731.21c5.48,0,9.92,4.44,9.92,9.92s-4.44,9.92-9.92,9.92c-4.56,0-8.36-3.09-9.52-7.28h-74.88v-5.27h74.88c1.16-4.19,4.96-7.28,9.52-7.28Z"/>
      <path class="st1" d="M733.45,762.97c0,5.48-4.44,9.92-9.92,9.92-4.56,0-8.36-3.09-9.52-7.28h-30.78l-9.87,12.35h24.56c1.16-4.19,4.96-7.28,9.52-7.28,5.48,0,9.92,4.44,9.92,9.92s-4.44,9.92-9.92,9.92c-4.56,0-8.36-3.09-9.52-7.28h-63.72v-5.27h32.4l14.08-17.62h33.32c1.16-4.19,4.96-7.28,9.52-7.28,5.48,0,9.92,4.44,9.92,9.92Z"/>
    </g>
    <path class="st1" d="M388.59,510.98c6.08-20.49,14.76-39.75,25.69-57.46,21-33.33,49.13-60.06,84.72-80.38,1.04-.7,2.26-1.22,3.3-1.74v-187.66h-118.05c0,16.14-2.95,31.42-8.85,45.66-6.25,14.58-14.58,27.25-25.34,37.84-10.94,10.59-23.61,19.1-37.84,25.35-14.24,6.25-29.51,9.37-45.66,9.37v117.53c22.74,0,44.61-3.12,65.45-9.37,18.75-5.38,36.11-12.67,52.25-21.87v29.68c0,15.97-2.95,31.25-8.85,45.48-6.25,14.76-14.58,27.43-25.34,38.02-10.94,10.59-23.61,18.92-37.84,25.17-14.24,6.25-29.51,9.37-45.66,9.37v117.7c22.74,0,44.61-3.12,65.45-9.37,18.57-5.21,35.76-12.5,51.91-21.87-3.13-14.93-4.69-30.38-4.69-46.35,0-22.39,3.12-44.09,9.37-65.1Z"/>
    <path class="st1" d="M510.45,393.28c32.64-18.4,66.49-27.43,103.46-27.43h2.6v-23.09h-2.6c-40.8,0-77.42,9.89-111.62,28.64v26.73c2.6-1.56,5.38-3.3,8.16-4.86Z"/>
    <path class="st1" d="M533.51,777.28c-26.73-11.43-49.07-26.38-68.41-45.55-20.05-19.7-35.17-42.03-46.25-68.06-6.86-15.65-11.78-32.01-14.42-49.24-4.57,3.52-9.32,6.68-14.24,9.67-2.29,1.41-4.75,2.81-7.03,4.04,2.99,15.48,7.74,30.42,14.07,44.84,12.31,28.67,29.37,53.64,51.35,75.44,21.46,21.28,46.6,37.99,75.62,50.47,29.02,12.49,59.97,18.64,93.03,18.64h1.58v-23.39h-1.58c-30.25,0-57.51-5.63-83.71-16.88Z"/>
    <path class="st1" d="M569.3,683.53c-14.24-6.08-26.91-14.41-38.02-25-10.59-10.42-18.92-22.74-25.17-36.8-5.9-14.06-8.85-29.16-8.85-45.65s2.95-30.9,8.85-44.96c6.25-14.58,14.58-26.91,25.17-37.5,11.11-10.42,23.78-18.75,38.02-24.83,14.24-6.25,29.51-9.2,45.66-9.2h1.56v-23.26h-1.56c-19.62,0-38.02,3.82-55.03,11.28-16.49,6.94-31.25,16.84-44.44,29.16-13.02,13.02-23.26,27.95-30.73,45.31-7.12,16.84-10.59,35.07-10.59,53.99s3.47,37.67,10.59,54.51c7.64,17.36,17.53,31.94,30.21,44.44,13.37,12.85,28.3,22.57,45.31,29.86,17.19,7.29,35.59,11.11,54.68,11.11h1.56v-23.25h-1.56c-16.14,0-31.42-3.13-45.66-9.21Z"/>
    <polygon class="st0" points="655.04 563.25 641.46 521.48 627.89 563.25 583.97 563.25 619.5 589.07 605.93 630.84 641.46 605.02 677 630.84 663.43 589.07 698.96 563.25 655.04 563.25"/>
  </g>
</svg>