<?xml version="1.0" encoding="UTF-8"?>
<svg id="Layer_1" xmlns="http://www.w3.org/2000/svg" version="1.1" viewBox="0 0 1000 1000">
  <!-- Generator: Adobe Illustrator 29.8.2, SVG Export Plug-In . SVG Version: 2.1.1 Build 3)  -->
  <defs>
    <style>
      .st0 {
        fill: #42489d;
      }

      .st1 {
        fill: #e80000;
      }

      .st2 {
        fill: #fff;
      }
    </style>
  </defs>
  <rect class="st2" x="-.87" width="1001.74" height="1001.74"/>
  <g>
    <g>
      <path class="st0" d="M730.56,446.14c0,5.48-4.44,9.92-9.92,9.92-4.11,0-7.63-2.5-9.14-6.05h-29.5l-5.09-9.67h-55.06v-5.28h58.25l5.09,9.67h25.67c.69-4.81,4.78-8.52,9.78-8.52,5.48,0,9.92,4.44,9.92,9.93Z"/>
      <path class="st0" d="M723.63,347.82c5.48,0,9.92,4.44,9.92,9.92s-4.44,9.92-9.92,9.92c-4.1,0-7.61-2.48-9.13-6.03h-49.06l-7.17-18h-36.42v-5.27h40l7.17,18h44.83c.68-4.82,4.78-8.54,9.78-8.54Z"/>
      <path class="st0" d="M706.28,369.68c5.48,0,9.92,4.44,9.92,9.92s-4.44,9.92-9.92,9.92c-4.56,0-8.36-3.09-9.52-7.29h-74.92v-5.27h74.92c1.16-4.19,4.96-7.29,9.52-7.29Z"/>
      <path class="st0" d="M733.55,401.46c0,5.48-4.44,9.92-9.92,9.92-4.56,0-8.36-3.1-9.52-7.29h-30.8l-9.87,12.35h24.58c1.16-4.19,4.96-7.29,9.52-7.29,5.48,0,9.92,4.44,9.92,9.92s-4.44,9.92-9.92,9.92c-4.56,0-8.36-3.09-9.52-7.29h-63.74v-5.27h32.42l14.08-17.62h33.33c1.16-4.19,4.96-7.29,9.52-7.29,5.48,0,9.92,4.44,9.93,9.92Z"/>
    </g>
    <g>
      <path class="st0" d="M720.64,791.44c-5,0-9.1,3.71-9.78,8.52h-25.67l-5.09-9.67h-58.25v5.28h55.06l5.09,9.67h29.5c1.51,3.56,5.03,6.05,9.14,6.05,5.48,0,9.92-4.44,9.92-9.92,0-5.48-4.44-9.93-9.92-9.93Z"/>
      <path class="st0" d="M723.63,703.04c5.48,0,9.92,4.44,9.92,9.92s-4.44,9.92-9.92,9.92c-4.1,0-7.61-2.48-9.13-6.03h-49.06l-7.17-18h-36.42v-5.27h40l7.17,18h44.83c.68-4.82,4.78-8.54,9.78-8.54Z"/>
      <path class="st0" d="M706.28,724.9c5.48,0,9.92,4.44,9.92,9.92s-4.44,9.92-9.92,9.92c-4.56,0-8.36-3.09-9.52-7.29h-74.92v-5.27h74.92c1.16-4.19,4.96-7.29,9.52-7.29Z"/>
      <path class="st0" d="M733.55,756.68c0,5.48-4.44,9.92-9.92,9.92-4.56,0-8.36-3.1-9.52-7.29h-30.8l-9.87,12.35h24.58c1.16-4.19,4.96-7.29,9.52-7.29,5.48,0,9.92,4.44,9.92,9.92s-4.44,9.92-9.92,9.92c-4.56,0-8.36-3.09-9.52-7.29h-63.74v-5.27h32.42l14.08-17.62h33.33c1.16-4.19,4.96-7.29,9.52-7.29,5.48,0,9.92,4.44,9.93,9.92Z"/>
    </g>
    <path class="st0" d="M388.54,504.57c6.08-20.49,14.76-39.77,25.7-57.49,21.01-33.35,49.15-60.09,84.75-80.41,1.04-.7,2.26-1.22,3.3-1.74v-187.74h-118.1c0,16.15-2.95,31.43-8.86,45.68-6.25,14.59-14.59,27.27-25.36,37.86-10.94,10.59-23.62,19.1-37.86,25.36-14.24,6.25-29.52,9.38-45.68,9.38v117.58c22.75,0,44.63-3.13,65.47-9.38,18.76-5.38,36.12-12.68,52.28-21.88v29.7c0,15.98-2.95,31.26-8.86,45.5-6.25,14.76-14.59,27.44-25.36,38.03-10.94,10.59-23.62,18.93-37.86,25.18-14.24,6.25-29.52,9.38-45.68,9.38v117.75c22.75,0,44.63-3.13,65.47-9.38,18.58-5.21,35.78-12.5,51.93-21.88-3.13-14.94-4.69-30.39-4.69-46.37,0-22.4,3.13-44.11,9.38-65.13Z"/>
    <path class="st0" d="M510.46,386.82c32.65-18.41,66.52-27.44,103.51-27.44h2.6v-23.1h-2.6c-40.81,0-77.46,9.9-111.67,28.66v26.75c2.61-1.56,5.38-3.3,8.16-4.86Z"/>
    <path class="st0" d="M533.52,771c-26.74-11.44-49.09-26.39-68.44-45.57-20.06-19.71-35.19-42.05-46.27-68.09-6.86-15.66-11.79-32.02-14.43-49.26-4.57,3.52-9.32,6.69-14.25,9.68-2.29,1.41-4.75,2.81-7.04,4.05,2.99,15.48,7.74,30.44,14.07,44.86,12.32,28.68,29.38,53.66,51.37,75.48,21.47,21.29,46.62,38,75.65,50.49,29.03,12.49,60,18.65,93.07,18.65h1.58v-23.4h-1.58c-30.26,0-57.53-5.63-83.75-16.89Z"/>
    <path class="st0" d="M569.33,677.2c-14.24-6.08-26.92-14.42-38.03-25.01-10.59-10.42-18.93-22.75-25.18-36.82-5.91-14.07-8.86-29.18-8.86-45.67s2.95-30.91,8.86-44.98c6.25-14.59,14.59-26.92,25.18-37.51,11.12-10.42,23.79-18.76,38.03-24.84,14.24-6.25,29.52-9.2,45.68-9.2h1.56v-23.27h-1.56c-19.63,0-38.03,3.82-55.06,11.29-16.5,6.95-31.26,16.85-44.46,29.18-13.03,13.03-23.27,27.96-30.74,45.33-7.12,16.85-10.59,35.08-10.59,54.01s3.47,37.69,10.59,54.53c7.64,17.37,17.54,31.96,30.22,44.46,13.37,12.85,28.31,22.58,45.33,29.87,17.19,7.29,35.6,11.12,54.71,11.12h1.56v-23.27h-1.56c-16.15,0-31.43-3.13-45.68-9.21Z"/>
    <polygon class="st1" points="655.11 556.87 641.53 515.08 627.95 556.87 584.01 556.87 619.56 582.7 605.98 624.49 641.53 598.66 677.08 624.49 663.5 582.7 699.05 556.87 655.11 556.87"/>
  </g>
</svg>